<?xml version="1.0" encoding="UTF-8"?>
<svg width="198px" height="418px" viewBox="0 0 198 418" version="1.1" xmlns="http://www.w3.org/2000/svg" xmlns:xlink="http://www.w3.org/1999/xlink">
    <!-- Generator: Sketch 60 (88103) - https://sketch.com -->
    <title>Asset 13</title>
    <desc>Created with Sketch.</desc>
    <defs>
        <linearGradient x1="1.06998116%" y1="24.3085218%" x2="83.446325%" y2="62.6503964%" id="linearGradient-1">
            <stop stop-color="#EBF1F4" offset="0%"></stop>
            <stop stop-color="#7B9FC5" offset="62%"></stop>
            <stop stop-color="#396FA9" offset="100%"></stop>
        </linearGradient>
        <linearGradient x1="2.75894592%" y1="85.55143%" x2="138.545507%" y2="-17.4958876%" id="linearGradient-2">
            <stop stop-color="#1F95FF" offset="0%"></stop>
            <stop stop-color="#1A41FF" offset="100%"></stop>
        </linearGradient>
        <linearGradient x1="49.9979557%" y1="13.0103073%" x2="49.9979557%" y2="106.018688%" id="linearGradient-3">
            <stop stop-color="#1F95FF" stop-opacity="0" offset="0%"></stop>
            <stop stop-color="#DAFFFF" offset="100%"></stop>
        </linearGradient>
        <linearGradient x1="47.260194%" y1="49.8901524%" x2="62.6827972%" y2="50.6985524%" id="linearGradient-4">
            <stop stop-color="#06287A" offset="0%"></stop>
            <stop stop-color="#002314" offset="96%"></stop>
        </linearGradient>
        <linearGradient x1="25.5851174%" y1="45.502916%" x2="116.488954%" y2="61.7099424%" id="linearGradient-5">
            <stop stop-color="#58CE44" offset="0%"></stop>
            <stop stop-color="#1B6F00" offset="100%"></stop>
        </linearGradient>
        <linearGradient x1="49.9849895%" y1="35.9364525%" x2="49.9849895%" y2="96.9953071%" id="linearGradient-6">
            <stop stop-color="#1F95FF" stop-opacity="0" offset="0%"></stop>
            <stop stop-color="#DAFFFF" offset="100%"></stop>
        </linearGradient>
        <linearGradient x1="50.007588%" y1="47.372081%" x2="49.785303%" y2="107.288477%" id="linearGradient-7">
            <stop stop-color="#1F95FF" stop-opacity="0" offset="0%"></stop>
            <stop stop-color="#DAFFFF" offset="100%"></stop>
        </linearGradient>
        <linearGradient x1="48.8502024%" y1="16.9396261%" x2="50.3360324%" y2="60.0399912%" id="linearGradient-8">
            <stop stop-color="#1F95FF" stop-opacity="0" offset="0%"></stop>
            <stop stop-color="#FFFFFF" offset="100%"></stop>
        </linearGradient>
        <linearGradient x1="50%" y1="0.188705207%" x2="50%" y2="103.925461%" id="linearGradient-9">
            <stop stop-color="#1F95FF" stop-opacity="0" offset="0%"></stop>
            <stop stop-color="#DAFFFF" offset="100%"></stop>
        </linearGradient>
        <linearGradient x1="55.6479171%" y1="97.3577012%" x2="40.6608721%" y2="-45.2627667%" id="linearGradient-10">
            <stop stop-color="#58CE44" offset="0%"></stop>
            <stop stop-color="#1B6F00" offset="100%"></stop>
        </linearGradient>
    </defs>
    <g id="Page-1" stroke="none" stroke-width="1" fill="none" fill-rule="evenodd">
        <g id="Optimize-benefits-of-time-tracking" transform="translate(-481.000000, -2894.000000)" fill-rule="nonzero">
            <g id="Asset-13" transform="translate(481.000000, 2891.000000)">
                <path d="M196.993045,344.320738 C196.993045,344.784492 196.666111,360.991881 196.666111,360.991881 C192.001319,391.97542 152.250909,421 98.8250816,421 C46.1966549,421 4.85144395,394.414125 1,360.887936 C1,360.887936 1.08771404,347.031298 1.08771404,346.055817 C1.07974004,309.523226 198.348626,308.379833 196.993045,344.320738 Z" id="Shape" fill="url(#linearGradient-1)"></path>
                <path d="M196.970227,347.984916 C195.590262,384.397681 153.098531,414 99.0166953,414 C44.9348595,414 3.06530846,384.437555 1.0631638,347.984916 C-0.938980859,311.532276 44.9348595,281.738563 99.0166953,282.00173 C153.712735,282.264897 198.318284,312.138358 196.970227,347.984916 Z" id="Shape" fill="url(#linearGradient-2)"></path>
                <ellipse id="Oval" fill="#0000FF" opacity="0.2" style="mix-blend-mode: multiply;" transform="translate(99.500000, 347.000000) rotate(-19.190000) translate(-99.500000, -347.000000) " cx="99.5" cy="347" rx="21.5" ry="11"></ellipse>
                <path d="M198,352.203063 C198,389.626972 154.094971,420 100.011959,420 C45.928946,420 0.810541895,390.273037 2.02391723,354.556016 C2.50288118,340.526038 2.02391723,6 2.02391723,6 L198,6 L198,352.203063 Z" id="Shape" fill="url(#linearGradient-3)" opacity="0.7"></path>
                <path d="M83.2031573,295 C83.420555,295.921146 80.7419047,306.526344 82.7528335,312.982379 C84.7637622,319.438413 90.3539888,316.666964 90.7965484,314.584372 C91.239108,312.50178 92,295.704877 92,295.704877 L83.2031573,295 Z" id="Shape" fill="#FFFFFF"></path>
                <path d="M100.442357,292.563851 C100.55947,292.931022 99.7318732,299.091337 100.091019,299.56458 C100.450164,300.037822 110.6702,311.599632 113.957163,311.966803 C117.244127,312.333974 118.423061,309.633226 114.667647,304.966074 C110.912233,300.298922 107.84388,294.032536 107.640885,291.82135 C107.437889,289.610164 100.442357,292.563851 100.442357,292.563851 Z" id="Shape" fill="#FFFFFF"></path>
                <path d="M88.8847531,208.062879 C88.8847531,209.046744 87.0014473,253.416672 86.5207709,256.376267 C86.0400945,259.335862 81.5485282,294.819006 82.0370845,296.794736 C82.5256408,298.770465 85.1181414,300.098284 87.9628001,299.994298 C93.0138422,299.818322 94.2667528,296.402789 94.2667528,296.402789 C94.8656283,289.723703 100.570705,256.128301 100.570705,256.128301 L103.242005,236.131038 C103.242005,236.131038 103.123806,255.432396 103.123806,256.448257 C103.123806,257.464118 99.0498769,293.899132 99.0498769,293.899132 C99.0498769,293.899132 104.226998,295.418924 108.072409,293.555179 C109.742957,292.875272 113.809006,259.159886 114.376362,255.816344 C115.101317,251.584923 120.372997,212.254305 119.979,207.894902 C119.585003,203.535498 88.8847531,208.062879 88.8847531,208.062879 Z" id="Shape" fill="url(#linearGradient-4)"></path>
                <path d="M87.6371804,187.716342 C88.1436329,194.005804 89.7916132,211.456056 89.7916132,211.456056 C89.7916132,211.456056 98.9238358,216.479614 108.779562,214.564733 C118.635288,212.649852 121.030889,207.618283 121.030889,207.618283 C121.030889,207.618283 119.865244,178.65471 121.030889,176.371275 C121.336368,175.770371 121.617731,177.621155 123.153166,181.354772 C124.085682,183.614171 125.37191,188.621704 128.402586,188.822006 C134.118264,189.198572 139.986682,188.629716 145.70236,188.25315 L148.491868,188.052849 C148.491868,188.052849 153.476004,185.368811 149.392228,179.624169 L133.129476,178.92712 L126.770684,162.903013 C124.897324,157.937722 120.238082,154.56051 114.921303,154.314092 L108.739367,154.025658 C105.127261,153.855515 101.525558,154.53338 98.2244491,156.004635 L89.1726157,160.010662 C85.1141363,161.811639 81.9694077,165.186058 80.4664563,169.352716 L74.1719754,186.786944 L66.245592,184.631702 C66.245592,184.631702 60.4736414,188.701825 64.3242881,191.097429 C66.6153827,192.523574 70.4579905,194.807009 73.1671093,196.417432 C75.8617806,198.053248 79.2403873,198.08095 81.961697,196.489541 C82.722354,196.066911 83.3510789,195.443061 83.7784948,194.686829 C84.6949326,192.852068 85.9570444,189.663271 86.7448594,187.596162 C86.8144348,187.387954 87.0227613,187.258505 87.240965,187.287894 C87.4591687,187.317282 87.6255489,187.497198 87.6371804,187.716342 Z" id="Shape" fill="url(#linearGradient-5)"></path>
                <path d="M144.907026,186.421154 C144.221997,185.444098 143.90764,184.241128 144.023575,183.04039 C144.287061,181.189782 148.448578,175.830228 148.975548,177.248227 C149.502519,178.666225 148.076598,179.595535 149.12279,179.94002 C150.571959,180.420698 157.740307,175.133246 158.662506,177.712882 C159.584704,180.292517 158.840746,183.937654 153.602039,186.373087 C153.602039,186.373087 146.852167,187.751029 144.907026,186.421154 Z" id="Shape" fill="#EEC48D"></path>
                <path d="M64.8016842,189.947594 C65.2706751,190.077298 65.7721599,189.962874 66.1424119,189.64168 C67.0493748,188.836644 68.5084021,187.323174 67.822265,186.421533 C66.8127758,185.133474 65.8663797,184.569949 65.2433357,183.418746 C64.6202916,182.267543 63.0666247,179.264756 61.552391,179.232555 C59.7148053,179.192303 62.0886821,181.172693 62.0886821,181.172693 C59.9040845,180.609168 57.2541755,177.356819 54.9433918,178.113554 C53.3029719,178.652928 52.7430209,178.999094 53.1058061,182.372198 C53.3187452,184.360639 56.1973666,187.653239 59.1942875,188.683687 C61.0376111,189.216505 62.9099567,189.638532 64.8016842,189.947594 Z" id="Shape" fill="#EEC48D"></path>
                <path d="M97,149.054381 C98.0210266,156.823047 97.95671,159.301252 97.95671,159.301252 L106.647495,167 L110,158.3224 L109.461348,149 L97,149.054381 Z" id="Shape" fill="#EEC48D"></path>
                <path d="M108.638151,149.742157 C108.763691,150.340417 109,157 109,157 C109,157 98.6614681,155.732633 99.0085474,148.844766 C99.3556267,141.9569 108.638151,149.742157 108.638151,149.742157 Z" id="Shape" fill="#29081C" opacity="0.4" style="mix-blend-mode: overlay;"></path>
                <path d="M99.4103782,150.87744 C99.4103782,150.87744 106.147483,154.342978 110.763795,152.417679 C115.380108,150.492381 114.136334,142.586368 112.637428,136.38445 C111.138522,130.182531 99.6575382,129.592652 97.5367454,133.312165 C95.4159526,137.031678 96.2849993,142.283236 96.2849993,142.283236 C96.2849993,142.283236 93.6619134,141.128057 94.0366399,143.18444 C94.4113665,145.240822 94.9136595,145.642267 95.9102727,145.879857 C96.9068859,146.117447 96.5959426,149.27166 99.4103782,150.87744 Z" id="Shape" fill="#EEC48D"></path>
                <path d="M98.4256511,141.217076 C98.5550945,142.772499 98.4256511,144.514572 98.0049601,144.514572 C97.5842691,144.514572 97.0907661,144.514572 97.0907661,144.514572 C96.7583251,144.017352 96.3991727,143.537113 96.0147679,143.075806 C95.7477909,142.79583 94.267282,142.406974 93.7495084,143.293565 C93.3854489,143.915734 94.5585297,146 94.5585297,146 C93.1508327,145.502265 91.751226,144.693445 91.484249,143.184686 C91.0803068,141.134999 90.9282474,139.046792 91.0311971,136.962996 C91.104009,135.734212 91.2739035,133.681055 92.6492396,133.113326 C95.3190096,132.008976 93.3449978,130.546879 95.7639713,129.22477 C98.1829448,127.902661 104.598483,125.336214 109.42025,128.555938 C114.242016,131.775662 115.463638,133.222205 112.09002,134.723188 C108.716401,136.22417 103.70856,134.902061 100.909346,134.23323 C99.6958145,133.945477 97.8350656,133.992139 97.2849312,135.28314 C96.9451423,136.060851 96.249384,138.184003 98.2719371,139.436118 C98.2962077,139.42834 98.3771099,140.571576 98.4256511,141.217076 Z" id="Shape" fill="#000000"></path>
                <path d="M28,393 C21.208403,388.178342 15.2895689,382.264631 10.4917442,375.506897 C4.40438307,366.724417 1,356.904008 1,346.548666 L1,0 L28,0 L28,393 Z" id="Shape" fill="url(#linearGradient-6)" opacity="0.38" style="mix-blend-mode: overlay;"></path>
                <path d="M133,409.509446 C131.995891,409.772662 130.991782,410.027903 129.979704,410.307072 C109.94707,414.996612 89.1295502,415.222619 69,410.969102 L69,0 L133,0 L133,409.509446 Z" id="Shape" fill="url(#linearGradient-7)" opacity="0.78" style="mix-blend-mode: overlay;"></path>
                <g id="Group" opacity="0.38" style="mix-blend-mode: overlay;" transform="translate(0.000000, 240.000000)" fill="url(#linearGradient-8)">
                    <path d="M98.4760729,133.696905 C44.1774494,133.696905 0,103.873929 0,67.2153571 C0,30.5567857 44.1774494,0.733809524 98.4760729,0.733809524 C152.774696,0.733809524 197,30.5567857 197,67.2153571 C197,103.873929 152.782672,133.696905 98.4760729,133.696905 Z M98.4760729,1.69892857 C44.7118219,1.69892857 0.965060729,31.1071429 0.965060729,67.2153571 C0.965060729,103.323571 44.7118219,132.731786 98.4760729,132.731786 C152.240324,132.731786 195.995061,103.339524 195.995061,67.2153571 C195.995061,31.0911905 152.2483,1.69892857 98.4760729,1.69892857 Z" id="Shape"></path>
                </g>
                <g id="Group" opacity="0.38" style="mix-blend-mode: overlay;" transform="translate(0.000000, 182.000000)" fill="url(#linearGradient-8)">
                    <path d="M98.4760729,133.322024 C44.1774494,133.322024 0,103.499048 0,66.8404762 C0,30.1819048 44.1774494,0.358928571 98.4760729,0.358928571 C152.774696,0.358928571 197,30.1819048 197,66.8404762 C197,103.499048 152.782672,133.322024 98.4760729,133.322024 Z M98.4760729,1.31607143 C44.7118219,1.31607143 0.965060729,30.7083333 0.965060729,66.8404762 C0.965060729,102.972619 44.7118219,132.356905 98.4760729,132.356905 C152.240324,132.356905 195.995061,102.964643 195.995061,66.8404762 C195.995061,30.7163095 152.2483,1.31607143 98.4760729,1.31607143 Z" id="Shape"></path>
                </g>
                <path d="M56,409 C51.1914707,407.206429 46.5136161,405.083937 42,402.64775 L42,2 L56,2 L56,409 Z" id="Shape" fill="url(#linearGradient-9)" opacity="0.63" style="mix-blend-mode: overlay;"></path>
                <path d="M87,187.416804 C87,187.416804 90.3033257,178.662199 90.5905714,178.017542 C90.8778171,177.372885 93.9477557,194.659249 90.0071035,203 L87,187.416804 Z" id="Shape" fill="url(#linearGradient-10)"></path>
            </g>
        </g>
    </g>
</svg>