<?xml version="1.0" encoding="UTF-8"?>
<svg width="291px" height="292px" viewBox="0 0 291 292" version="1.1" xmlns="http://www.w3.org/2000/svg" xmlns:xlink="http://www.w3.org/1999/xlink">
    <!-- Generator: Sketch 60 (88103) - https://sketch.com -->
    <title>Asset 5</title>
    <desc>Created with Sketch.</desc>
    <g id="Page-1" stroke="none" stroke-width="1" fill="none" fill-rule="evenodd">
        <g id="Optimize-benefits-of-time-tracking" transform="translate(-896.000000, -648.000000)">
            <g id="Asset-5" transform="translate(896.000000, 648.000000)">
                <g id="Group" opacity="0.31" transform="translate(150.000000, 105.000000)" fill-rule="nonzero">
                    <path d="M27.8064286,63.325 C37.3921429,68.9444444 50.5135714,72.6513889 65.1042857,72.6513889 C94.8592857,72.6513889 117.134286,57.2569444 117.134286,41.5949074 C117.134286,33.6615741 111.422143,26.35 101.915,21.0611111 L116.112857,12.6319444 C128.605714,19.912037 131.300714,32.1819444 131.300714,43.8300926 C131.300714,68.1416667 103.973571,84.9449074 65.1042857,84.9449074 C45.5085714,84.9449074 28.05,80.1046296 15.5571429,72.187037 L27.8064286,63.325 Z" id="Shape" fill="#0000EC"></path>
                    <path d="M101.883571,21.1319444 C91.6692857,16.1972222 77.6914286,12.7342593 64.3578571,12.7342593 C52.4057104,12.8425612 40.5946969,15.3334173 29.6135714,20.0615741 L14.9521429,12.1912037 C27.2092857,4.32083333 45.0214286,0.314814815 65.1514286,0.314814815 C85.58,0.314814815 103.572857,4.50185185 115.845714,12.5060185 L101.883571,21.1319444 Z" id="Shape" fill="#0000EC"></path>
                    <path d="M27.115,18.2828704 C16.9478571,21.7851852 8.91,31.0171296 8.91,41.1069444 C8.91,50.7717593 16.0442857,59.9407407 26.1485714,64.7888889 L18.0714286,70.5185185 C7.38571429,63.8365741 0,53.4398148 0,41.7837963 C0,30.1277778 7.07142857,19.8018519 18.4721429,13.5055556 L27.115,18.2828704 Z" id="Shape" fill="#0000FF"></path>
                </g>
                <path d="M176.364769,159.493235 C186.040856,165.090528 199.28599,168.782861 214.014263,168.782861 C244.049787,168.782861 266.534791,153.456937 266.534791,137.848797 C266.534791,129.946735 260.768795,122.663982 251.172021,117.395941 L265.503732,109 C278.11437,116.251396 283,125.109858 283,136.719931 C283,160.927835 253.353106,182 214.117369,182 C194.289323,182 176.610637,176.206723 164,168.320339 L176.364769,159.493235 Z" id="Shape" fill="#00FFFF" fill-rule="nonzero"></path>
                <path d="M250.891589,118 C240.564486,113.0125 226.432243,109.5125 212.951402,109.5125 C200.867243,109.62196 188.925777,112.139457 177.823364,116.918182 L163,109.003409 C175.392523,101.048864 193.401402,97 213.753738,97 C234.407944,97 252.599533,101.231818 265,109.321591 L250.891589,118 Z" id="Shape" fill="#FF2CA2" fill-rule="nonzero"></path>
                <path d="M175,114.76836 C164.889661,118.269879 156.89053,127.499724 156.89053,137.587245 C156.89053,147.249862 163.990443,156.416759 174.046047,161.263805 L166.031277,167 C155.373588,160.319575 148,149.925179 148,138.271811 C148,126.618443 155.037359,116.294865 166.383145,110 L175,114.76836 Z" id="Shape" fill="#D8FFFF" fill-rule="nonzero"></path>
                <g id="Group" opacity="0.32" style="mix-blend-mode: multiply;" transform="translate(2.000000, 179.000000)" fill="#0000FF" fill-rule="nonzero">
                    <path d="M115.268966,69.8864151 C103.340517,78.1596226 85.6407471,83.310566 65.5710345,83.310566 C28.8014943,83.310566 0,66.0113208 0,43.9335849 C0,32.609434 7.57436782,22.5373585 19.9043678,15.405283 L28.8014943,20.9524528 C16.691954,26.5867925 8.88137931,34.8679245 8.88137931,43.9335849 C8.88137931,60.4324528 34.8641379,74.3716981 65.5710345,74.3716981 C82.0582759,74.3716981 97.1676437,70.3618868 107.639483,64.0698113 L115.268966,69.8864151 Z" id="Shape"></path>
                    <path d="M103.482241,61.5339623 C114.324138,56.3988679 120.717471,49.2984906 120.717471,42.6022642 C120.717471,30.1528302 97.2621264,14.6683019 65.5001724,14.6683019 C51.4143678,14.6683019 41.2102299,18.0996226 31.3367816,23.1316981 L16.4321264,12.9328302 C29.0298276,5.00830189 46.831954,0.182264151 66.822931,0.182264151 C106.017529,0.182264151 136.716552,18.8128302 136.716552,42.6022642 C136.716552,54.1324528 129.496494,64.4581132 117.59954,72.0260377 L103.482241,61.5339623 Z" id="Shape"></path>
                </g>
                <path d="M116,239.557125 C103.995902,247.841872 86.1838798,253 65.9868852,253 C28.984153,253 0,235.676625 0,213.568094 C0,202.228148 7.62240437,192.142024 20.0306011,185 L28.984153,190.554907 C16.7978142,196.197106 8.93770492,204.489789 8.93770492,213.568094 C8.93770492,230.089975 35.0852459,244.048664 65.9868852,244.048664 C82.5786885,244.048664 97.7838798,240.033259 108.322131,233.732408 L116,239.557125 Z" id="Shape" fill="#0000AA" fill-rule="nonzero"></path>
                <path d="M103.567978,231.485109 C114.474373,226.338848 120.905741,219.223031 120.905741,212.512244 C120.905741,200.035738 100.985927,184.565189 64.6708778,184.565189 C50.5012764,184.565189 40.2760359,188.861681 31.0091641,192.999338 L16,182.778293 C28.6726452,174.836532 46.5806768,170 66.6905806,170 C106.118348,170 137,188.671079 137,212.512244 C137,224.067505 129.73699,234.415619 117.769261,242 L103.567978,231.485109 Z" id="Shape" fill="#00FFFF" fill-rule="nonzero"></path>
                <polygon id="Shape" fill="#00CFFF" fill-rule="nonzero" points="111 284.488 115.315071 287 154 264.424 149.684929 262"></polygon>
                <path d="M120,289.411243 C120,289.411243 124.198257,292.031284 124.277024,291.999717 C124.35579,291.96815 167,266.509558 167,266.509558 L162.754483,264 L120,289.411243 Z" id="Shape" fill="#00CFFF" fill-rule="nonzero"></path>
                <path d="M95,275.41304 C95,275.41304 99.1736527,278.031262 99.2519576,277.999717 C99.3302626,277.968172 112,270.507816 112,270.507816 L107.771534,268 L95,275.41304 Z" id="Shape" fill="#00CFFF" fill-rule="nonzero"></path>
                <polygon id="Shape" fill="#00CFFF" fill-rule="nonzero" points="103 279.674008 148.764316 253 153 255.357531 107.38555 282"></polygon>
                <polygon id="Shape" fill="#00CFFF" fill-rule="nonzero" points="235 209.488804 239.315071 212 278 189.431222 273.684929 187"></polygon>
                <path d="M244,214.411354 C244,214.411354 248.198257,217.023515 248.277024,217 C248.35579,216.976165 291,191.509569 291,191.509569 L286.754483,189 L244,214.411354 Z" id="Shape" fill="#00CFFF" fill-rule="nonzero"></path>
                <path d="M218,198.413131 C218,198.413131 222.167742,201.023499 222.246083,200.99984 C222.324424,200.976181 235,193.507846 235,193.507846 L230.769585,191 L218,198.413131 Z" id="Shape" fill="#00CFFF" fill-rule="nonzero"></path>
                <polygon id="Shape" fill="#00CFFF" fill-rule="nonzero" points="226 203.674008 271.764316 177 276 179.365416 230.38555 206"></polygon>
                <polygon id="Shape" fill="#00CFFF" fill-rule="nonzero" points="72.0394033 33.042362 72 44 127.960597 11.0383275 128 0"></polygon>
                <polygon id="Shape" fill="#00CFFF" fill-rule="nonzero" points="72 54.1576303 117.937838 27 118 37.794641 72.1554054 65"></polygon>
                <polygon id="Shape" fill="#00CFFF" fill-rule="nonzero" points="72 75.3428757 72 86 138 48.5946649 137.944183 38"></polygon>
                <line x1="72" y1="91" x2="72" y2="175" id="Shape" stroke="#00FFFF" stroke-width="1.5" stroke-linecap="round" stroke-linejoin="round" stroke-dasharray="9"></line>
            </g>
        </g>
    </g>
</svg>